<?xml version="1.0" encoding="UTF-8"?>
<svg id="Layer_1" data-name="Layer 1" xmlns="http://www.w3.org/2000/svg" version="1.1" viewBox="0 0 77.6 95">
  <defs>
    <style>
      .cls-1 {
        fill: #fff;
        stroke-width: 0px;
      }
    </style>
  </defs>
  <path class="cls-1" d="M39.6,0C17.9-.4.2,17.8.2,39.5v47.5c0,3.6,4.3,5.4,6.8,2.9,1.5-1.5,4.1-1.5,5.7,0l4,4c1.5,1.5,4.1,1.5,5.7,0l4-4c1.5-1.5,4.1-1.5,5.7,0l4,4c1.5,1.5,4.1,1.5,5.7,0l4-4c1.5-1.5,4.1-1.5,5.7,0l4,4c1.5,1.5,4.1,1.5,5.7,0l4-4c1.5-1.5,4.1-1.5,5.7,0,2.5,2.5,6.8.7,6.8-2.9v-48.3C77.6,17.6,60.7.4,39.6,0h0ZM19.6,48.4c-5.3,0-9.7-4.4-9.7-9.7s4.4-9.7,9.7-9.7,9.7,4.4,9.7,9.7c0,5.3-4.4,9.7-9.7,9.7ZM58.2,48.4c-5.3,0-9.7-4.4-9.7-9.7s4.4-9.7,9.7-9.7,9.7,4.4,9.7,9.7-4.4,9.7-9.7,9.7Z"/>
</svg>