<?xml version="1.0" encoding="UTF-8"?>
<svg id="Layer_1" data-name="Layer 1" xmlns="http://www.w3.org/2000/svg" version="1.1" viewBox="0 0 100 125">
  <defs>
    <style>
      .cls-1 {
        fill: #000;
        stroke-width: 0px;
      }
    </style>
  </defs>
  <path class="cls-1" d="M50.1,31.5l.3-.2c1.3-1.2,2-2.8,2-4.6s-.7-3.4-2-4.6l-.3-.2-.3.2c-1.3,1.2-2,2.8-2,4.6s.7,3.4,2,4.6l.3.2Z"/>
  <path class="cls-1" d="M34.8,38.3h.4s0-.3,0-.3c.4-1.7,0-3.5-1-4.9-1-1.4-2.6-2.3-4.3-2.5h-.4s0,.3,0,.3c-.4,1.7,0,3.5,1,4.9,1,1.4,2.6,2.3,4.3,2.5Z"/>
  <path class="cls-1" d="M17,45.8c1,.6,2,.9,3.2.9s1.2,0,1.8-.3h.3c0-.1,0-.5,0-.5-.3-1.7-1.4-3.2-2.9-4.1-1.5-.9-3.3-1.1-5-.6h-.3c0,.1,0,.5,0,.5.3,1.7,1.4,3.2,2.9,4.1Z"/>
  <path class="cls-1" d="M12.1,56.4c.6.1,1.2.2,1.8.1h0c1.1,0,2.2-.5,3.1-1.1l.3-.2-.2-.3c-.9-1.5-2.3-2.6-4-3-1.7-.4-3.5,0-4.9,1l-.3.2.2.3c.9,1.5,2.3,2.6,4,3Z"/>
  <path class="cls-1" d="M18.8,67.2l-.3-.2c-1.3-1.1-3.1-1.6-4.8-1.4-1.7.2-3.3,1.2-4.3,2.6l-.2.3.3.2c1.2,1,2.7,1.5,4.2,1.4.2,0,.4,0,.6,0,1.7-.2,3.3-1.2,4.3-2.6l.2-.3Z"/>
  <path class="cls-1" d="M31.2,75.8c-1.5.9-2.5,2.4-2.9,4.1v.4c0,0,.3.1.3.1,1,.3,2,.3,2.9.1h0c.7-.1,1.4-.4,2-.8,1.5-.9,2.5-2.4,2.9-4.1v-.4c0,0-.3-.1-.3-.1-1.7-.5-3.5-.3-5,.6Z"/>
  <path class="cls-1" d="M49.3,50.9h-.3c0-.1-.2.1-.2.1-1.1,1.8-1.4,4-.8,6.1.6,2,2.1,3.7,4,4.7h.3c0,.1.2-.1.2-.1,1.1-1.8,1.4-4,.8-6.1-.6-2-2.1-3.7-4-4.7Z"/>
  <path class="cls-1" d="M51.9,36.3l-.2-.3h-.3c-1.9,1.1-3.3,2.7-3.9,4.8-.6,2-.3,4.2.8,6l.2.3h.3c1.9-1.1,3.3-2.7,3.9-4.8.6-2,.3-4.2-.8-6Z"/>
  <path class="cls-1" d="M41.1,66.7c1,0,1.9-.3,2.8-.6h.3c0-.1-.1-.4-.1-.4-.7-2.1-2.5-3.8-4.8-4.7-2.3-.9-5-.9-7.3,0h-.3c0,.1.1.4.1.4.7,2.1,2.5,3.8,4.8,4.7,1.4.6,2.9.8,4.4.7h0Z"/>
  <path class="cls-1" d="M28.1,72.5c.1,0,.2,0,.4,0,2.1-.2,4.1-1.3,5.4-3.1l.2-.3-.3-.2c-1.6-1.5-3.7-2.2-5.9-1.9-2.1.2-4.1,1.3-5.4,3.1l-.2.3.3.2c1.5,1.4,3.5,2.1,5.5,2h0Z"/>
  <path class="cls-1" d="M31,55.7l.3-.2v-.3c-.8-2-2.4-3.7-4.4-4.5-1.5-.6-3.2-.8-4.8-.4-.5.1-1,.3-1.4.5l-.3.2v.3c.8,2,2.4,3.7,4.4,4.5,1.5.6,3.2.8,4.8.4.5-.1,1-.3,1.4-.5Z"/>
  <path class="cls-1" d="M27.3,62.3l.3-.2-.2-.3c-1.3-1.7-3.2-2.7-5.3-2.9-1.6-.1-3.2.2-4.5,1.1-.4.3-.8.6-1.2.9l-.3.2.2.3c1.3,1.7,3.2,2.7,5.3,2.9,1.6.1,3.2-.3,4.5-1.1.4-.3.8-.6,1.2-.9Z"/>
  <path class="cls-1" d="M27,44.9c1.4,1.2,3.2,1.9,5,1.9h0c.3,0,.6,0,.9,0h.4s0-.4,0-.4c0-2.2-1-4.2-2.6-5.6-1.4-1.2-3.2-1.9-5-1.9-.3,0-.6,0-.9,0h-.4s0,.4,0,.4c0,2.2,1,4.2,2.6,5.6Z"/>
  <path class="cls-1" d="M43.3,39.9l.3.2.2-.3c1.3-1.6,1.9-3.8,1.5-5.8-.4-2.1-1.6-3.9-3.5-5l-.3-.2-.2.3c-1.3,1.6-1.9,3.8-1.5,5.8.4,2.1,1.6,3.9,3.5,5Z"/>
  <path class="cls-1" d="M34.8,51.2h-.3s0,.3,0,.3c0,1.8,1,3.5,2.7,4.7,1.6,1.1,3.6,1.6,5.7,1.5h0c0,0,.2,0,.3,0h.3s0-.3,0-.3c0-1.8-1-3.5-2.7-4.7-1.7-1.2-3.8-1.7-6-1.4Z"/>
  <path class="cls-1" d="M36.9,41.3h-.3s0,.2,0,.2c-.3,1.7.2,3.4,1.5,4.8,1.2,1.3,2.9,2.2,4.9,2.5h0c0,0,.2,0,.3,0h.3s0-.2,0-.2c.3-1.7-.2-3.4-1.5-4.8-1.3-1.4-3.1-2.3-5.1-2.5Z"/>
  <path class="cls-1" d="M67,38.3h-.4s0-.3,0-.3c-.4-1.7,0-3.5,1-4.9,1-1.4,2.6-2.3,4.3-2.5h.4s0,.3,0,.3c.4,1.7,0,3.5-1,4.9-1,1.4-2.6,2.3-4.3,2.5Z"/>
  <path class="cls-1" d="M84.8,45.8c-1,.6-2,.9-3.2.9s-1.2,0-1.8-.3h-.3c0-.1,0-.5,0-.5.3-1.7,1.4-3.2,2.9-4.1,1.5-.9,3.3-1.1,5-.6h.3c0,.1,0,.5,0,.5-.3,1.7-1.4,3.2-2.9,4.1Z"/>
  <path class="cls-1" d="M89.7,56.4c-.6.1-1.2.2-1.8.1h0c-1.1,0-2.2-.5-3.1-1.1l-.3-.2.2-.3c.9-1.5,2.3-2.6,4-3,1.7-.4,3.5,0,4.9,1l.3.2-.2.3c-.9,1.5-2.3,2.6-4,3Z"/>
  <path class="cls-1" d="M83,67.2l.3-.2c1.3-1.1,3.1-1.6,4.8-1.4,1.7.2,3.3,1.2,4.3,2.6l.2.3-.3.2c-1.2,1-2.7,1.5-4.2,1.4-.2,0-.4,0-.6,0-1.7-.2-3.3-1.2-4.3-2.6l-.2-.3Z"/>
  <path class="cls-1" d="M70.6,75.8c1.5.9,2.5,2.4,2.9,4.1v.4c0,0-.3.1-.3.1-1,.3-2,.3-2.9.1h0c-.7-.1-1.4-.4-2-.8-1.5-.9-2.5-2.4-2.9-4.1v-.4c0,0,.3-.1.3-.1,1.7-.5,3.5-.3,5,.6Z"/>
  <path class="cls-1" d="M60.8,66.7c-1,0-1.9-.3-2.8-.6h-.3c0-.1.1-.4.1-.4.7-2.1,2.5-3.8,4.8-4.7,2.3-.9,5-.9,7.3,0h.3c0,.1-.1.4-.1.4-.7,2.1-2.5,3.8-4.8,4.7-1.4.6-2.9.8-4.4.7h0Z"/>
  <path class="cls-1" d="M73.7,72.5c-.1,0-.2,0-.4,0-2.1-.2-4.1-1.3-5.4-3.1l-.2-.3.3-.2c1.6-1.5,3.7-2.2,5.9-1.9,2.1.2,4.1,1.3,5.4,3.1l.2.3-.3.2c-1.5,1.4-3.5,2.1-5.5,2t0,0Z"/>
  <path class="cls-1" d="M70.8,55.7l-.3-.2v-.3c.8-2,2.4-3.7,4.4-4.5,1.5-.6,3.2-.8,4.8-.4.5.1,1,.3,1.4.5l.3.2v.3c-.8,2-2.4,3.7-4.4,4.5-1.5.6-3.2.8-4.8.4-.5-.1-1-.3-1.4-.5Z"/>
  <path class="cls-1" d="M74.5,62.3l-.3-.2.2-.3c1.3-1.7,3.2-2.7,5.3-2.9,1.6-.1,3.2.2,4.5,1.1.4.3.8.6,1.2.9l.3.2-.2.3c-1.3,1.7-3.2,2.7-5.3,2.9-1.6.1-3.2-.3-4.5-1.1-.4-.3-.8-.6-1.2-.9Z"/>
  <path class="cls-1" d="M74.8,44.9c-1.4,1.2-3.2,1.9-5,1.9h0c-.3,0-.6,0-.9,0h-.4s0-.4,0-.4c0-2.2,1-4.2,2.6-5.6,1.4-1.2,3.2-1.9,5-1.9.3,0,.6,0,.9,0h.4s0,.4,0,.4c0,2.2-1,4.2-2.6,5.6Z"/>
  <path class="cls-1" d="M58.5,39.9l-.3.2-.2-.3c-1.3-1.6-1.9-3.8-1.5-5.8.4-2.1,1.6-3.9,3.5-5l.3-.2.2.3c1.3,1.6,1.9,3.8,1.5,5.8-.4,2.1-1.6,3.9-3.5,5Z"/>
  <path class="cls-1" d="M67,51.2h.3s0,.3,0,.3c0,1.8-1,3.5-2.7,4.7-1.6,1.1-3.6,1.6-5.7,1.5h0c0,0-.2,0-.3,0h-.3s0-.3,0-.3c0-1.8,1-3.5,2.7-4.7,1.7-1.2,3.8-1.7,6-1.4Z"/>
  <path class="cls-1" d="M63.4,42.3h.3s0,.3,0,.3c.1,1.8-.7,3.7-2.2,5-1.5,1.3-3.5,2-5.6,2.1h0c0,0-.2,0-.3,0h-.3s0-.3,0-.3c-.1-1.8.7-3.7,2.2-5,1.6-1.4,3.7-2.1,5.9-2.1Z"/>
  <path class="cls-1" d="M62.4,70c-.2,0-.3,0-.5.2-1.7.5-6.7,2.5-10.9,7.4-4.3-4.8-9.3-6.8-10.9-7.4-.2,0-.4-.1-.5-.2-.7-.3-1.7,1.2-.8,1.9,3.1,2,6.1,4.5,7,9.4.6,3,.5,7,.4,10.8-.1,6.5-1.3,12.9-6.7,15.4,1.5.4,5.9.8,11.5-3.1,5.6,3.8,10,3.4,11.5,3.1-5.4-2.5-6.6-8.9-6.7-15.4,0-3.8-.2-7.8.4-10.8.9-4.9,4-7.4,7-9.4.9-.6,0-2.1-.8-1.9Z"/>
  <circle class="cls-1" cx="50.9" cy="69" r="3.1"/>
</svg>